<svg width="714" height="550" viewBox="0 0 714 550" fill="none" xmlns="http://www.w3.org/2000/svg">
<path d="M709.612 291.244V343.337C709.612 358.713 707.039 374.023 701.509 388.369C699.358 393.912 696.916 399.046 694.144 403.771C687.783 414.647 679.732 423.542 670.216 430.181C660.687 436.833 649.614 441.307 637.273 443.471C635.109 443.867 135.467 533.443 71.1124 545.044C68.5652 545.506 66.0575 545.731 63.6423 545.731C50.1142 545.731 41.8521 538.564 38.3414 535.502L38.2358 535.41C37.1932 534.499 35.9921 533.404 34.6723 532.176L12.3938 500.091C6.71864 491.922 3.72266 482.366 3.72266 472.415V125.792C3.72266 118.612 8.85674 112.488 15.9441 111.234L393.517 44.7288C394.718 44.5176 395.853 44.3988 396.948 44.3988C400.406 44.3988 403.402 45.4943 405.778 47.5928C407.494 46.141 409.262 44.742 411.136 43.409C419.913 37.1795 431.039 32.3357 449.055 29.1682C449.82 29.0362 450.599 28.9042 451.391 28.759C451.668 28.7062 451.945 28.6534 452.222 28.6139C459.745 27.3468 468.139 26.159 476.388 26.159C491.487 26.159 503.418 30.158 513.132 38.6049L513.158 38.6312H513.171C514.953 40.1886 516.669 41.9044 518.305 43.7653C518.609 43.277 518.912 42.7887 519.229 42.3003C520.615 40.1358 522.093 38.0769 523.637 36.1104C524.706 34.751 525.802 33.4444 526.937 32.1905C539.436 18.2665 555.471 10.44 580.561 6.01862C582.475 5.67547 584.336 5.38511 586.157 5.13434C592.677 4.19727 598.669 3.74854 604.318 3.74854C614.282 3.74854 623.244 5.21353 631.176 8.14352C640.943 11.7334 649.125 17.5406 655.632 25.5255C657.585 27.9275 659.882 31.2799 661.756 34.5002C668.817 46.5501 680.418 73.7647 690.66 97.7854C693.933 105.493 697.048 112.752 699.753 118.982L701.76 123.535C702.895 126.148 703.871 128.88 704.703 131.744C709.177 147.067 709.586 165.875 709.586 188.127V217.559C709.586 224.606 704.624 230.638 697.774 232.037C697.642 232.063 697.51 232.09 697.378 232.116L691.795 233.106L689.868 233.449L683.929 234.505L703.238 267.223C703.845 268.253 704.412 269.295 704.927 270.378C708.002 276.699 709.612 283.84 709.612 291.244Z" fill="black"/>
<path d="M63.6415 549.465C48.6616 549.465 39.3833 541.362 35.8858 538.313L35.7802 538.221C34.7111 537.297 33.4837 536.175 32.1375 534.908L31.8471 534.631L9.34429 502.216C3.23355 493.426 0 483.118 0 472.415V125.792C0 116.79 6.4407 109.122 15.3099 107.552L392.869 41.0462C394.347 40.7823 395.68 40.6635 396.948 40.6635C400.115 40.6635 403.058 41.429 405.605 42.894C406.741 41.9965 407.849 41.1518 408.971 40.3599C419.252 33.0614 431.421 28.4684 448.407 25.4856L448.816 25.4196C449.437 25.3141 450.07 25.2085 450.717 25.0897C451.034 25.0237 451.363 24.9709 451.693 24.9181C458.952 23.6907 467.663 22.4237 476.387 22.4237C492.423 22.4237 505.238 26.7922 515.586 35.7802L515.744 35.9254C516.417 36.5193 517.09 37.1396 517.763 37.7731C518.687 36.4401 519.677 35.1071 520.707 33.8005C521.855 32.3355 523.029 30.9497 524.178 29.6826C537.27 15.0987 553.94 6.91583 579.927 2.33607C581.814 1.99292 583.688 1.70256 585.668 1.4254C592.32 0.475133 598.43 0 604.343 0C614.717 0 624.18 1.55738 632.495 4.63255C642.882 8.44682 651.645 14.6763 658.548 23.1628C660.647 25.7496 663.062 29.2867 665.002 32.6126C672.169 44.8473 683.809 72.1411 694.078 96.2277C697.337 103.896 700.479 111.221 703.197 117.49L705.19 122.03C706.378 124.775 707.434 127.679 708.305 130.701C712.964 146.645 713.334 166.138 713.334 188.126V217.558C713.334 226.322 707.104 233.95 698.538 235.693L698.129 235.772L689.894 237.237L706.47 265.322C707.183 266.537 707.79 267.672 708.318 268.767C711.618 275.538 713.36 283.325 713.36 291.244V343.337C713.36 359.729 710.549 375.329 705.005 389.715C702.762 395.483 700.201 400.854 697.377 405.658C690.738 417.022 682.318 426.3 672.367 433.242C662.375 440.211 650.801 444.896 637.932 447.153C637.391 447.246 603.683 453.29 552.672 462.45C401.29 489.599 119.509 540.121 71.7847 548.726C69.0527 549.228 66.3207 549.465 63.6547 549.465H63.6415ZM37.5091 529.708C38.6838 530.79 39.7528 531.767 40.6899 532.598L40.7955 532.691C43.9762 535.475 51.4596 541.995 63.6415 541.995C65.8588 541.995 68.1552 541.784 70.4517 541.375C118.176 532.77 399.957 482.247 551.339 455.099C602.35 445.952 636.045 439.908 636.6 439.802C648.412 437.73 658.984 433.467 668.077 427.119C677.144 420.797 684.826 412.31 690.923 401.884C693.55 397.41 695.938 392.407 698.024 387.023C703.237 373.508 705.877 358.805 705.877 343.337V291.244C705.877 284.46 704.385 277.808 701.574 272.014C701.125 271.09 700.624 270.153 700.03 269.123L677.989 231.773L697.06 228.381C702.155 227.338 705.863 222.785 705.863 217.558V188.126C705.863 166.719 705.507 147.78 701.125 132.787C700.333 130.068 699.396 127.455 698.34 125.013L696.348 120.473C693.616 114.177 690.461 106.839 687.228 99.2369C677.012 75.2823 665.477 48.2128 658.535 36.3741C656.766 33.3385 654.602 30.171 652.741 27.8613C646.696 20.4439 639.002 14.9799 629.895 11.6276C622.411 8.86916 613.806 7.45695 604.33 7.45695C598.774 7.45695 593.019 7.89249 586.697 8.80317C584.81 9.06713 583.028 9.34429 581.233 9.66105C557.028 13.924 541.626 21.3942 529.734 34.6583C528.691 35.8198 527.636 37.0736 526.593 38.3934C525.062 40.3335 523.65 42.3133 522.396 44.293C522.106 44.7417 521.842 45.1773 521.578 45.5996L518.846 49.9814L515.533 46.2067C514.002 44.4646 512.392 42.8676 510.755 41.4422L510.597 41.297C501.582 33.4969 490.707 29.8674 476.427 29.8674C468.257 29.8674 459.942 31.0816 452.881 32.2695C452.565 32.3091 452.353 32.3619 452.142 32.4015C451.429 32.5334 450.77 32.639 450.123 32.7578L449.727 32.8238C433.902 35.6086 422.671 39.8056 413.34 46.4311C411.677 47.6057 410.014 48.9123 408.232 50.4169L405.764 52.5022L403.349 50.3641C401.646 48.8596 399.508 48.1073 396.987 48.1073C396.156 48.1073 395.245 48.1996 394.202 48.3844L16.5901 114.916C11.2976 115.853 7.45695 120.433 7.45695 125.792V472.415C7.45695 481.587 10.2286 490.43 15.455 497.966L37.5091 529.721V529.708Z" fill="white"/>
<path d="M575.519 23.7299C540.029 29.999 518.477 60.9883 518.477 127.032V311.714C518.477 377.757 540.029 401.157 575.519 394.901C611.009 388.632 632.561 357.643 632.561 291.6V223.088L584.164 231.627V324.371C584.164 336.526 580.547 341.911 576.06 342.703C571.586 343.495 567.956 339.39 567.956 327.235V93.3369C567.956 81.1814 571.586 75.7966 576.06 75.0047C580.534 74.2128 584.164 78.3175 584.164 90.4861V168.487L632.561 159.948V106.918C632.561 40.8743 611.009 17.474 575.519 23.7299Z" fill="#82E155"/>
<path d="M83.8601 263.08L69.2498 265.653V117.715L21.6309 126.109V486.709L69.2498 478.315V314.896L83.8601 312.309V263.08Z" fill="#82E155"/>
<path d="M444.54 365.497C440.066 366.289 436.436 362.184 436.436 350.029V116.171C436.436 104.015 440.053 98.6303 444.54 97.8385C448.447 97.1521 452.472 89.0353 452.472 89.0353V45.5342C449.912 45.6662 447.272 45.9697 444.54 46.4449C408.707 52.7668 386.943 83.7956 386.943 149.852V334.534C386.943 400.578 408.72 423.938 444.54 417.63C447.272 417.155 449.912 416.508 452.472 415.729V368.757C452.472 368.757 448.447 364.824 444.54 365.51V365.497Z" fill="#82E155"/>
<path d="M598.087 19.8632C562.598 26.1323 541.045 57.1216 541.045 123.165V307.847C541.045 373.904 562.598 397.291 598.087 391.035C633.577 384.779 655.13 353.776 655.13 287.733V219.221L606.732 227.76V320.517C606.732 332.673 603.116 338.057 598.628 338.849C594.154 339.641 590.525 335.537 590.525 323.381V89.4702C590.525 77.3147 594.141 71.9299 598.628 71.138C603.103 70.3461 606.732 74.4508 606.732 86.6194V164.62L655.13 156.081V103.051C655.13 37.0076 633.577 13.6073 598.087 19.8632Z" fill="#2ECCFF"/>
<path d="M574.318 64.6172H596.808L597.046 166.177L574.556 170.282L574.318 64.6172Z" fill="black"/>
<path d="M468.138 43.6199C466.462 43.9235 464.812 44.293 463.202 44.689V98.5374C464.575 96.4653 466.277 95.3303 468.138 95.0003C472.613 94.2084 476.242 98.313 476.242 110.469V344.34C476.242 356.495 472.626 361.88 468.138 362.672C466.277 363.002 464.575 362.474 463.202 360.877C463.202 360.877 446.005 414.422 450.941 415.438C455.877 416.454 466.449 415.082 468.138 414.778C503.971 408.456 525.748 377.428 525.748 311.371V126.689C525.748 60.6455 503.971 37.2848 468.138 43.5935V43.6199Z" fill="#2ECCFF"/>
<path d="M259.793 84.1499L252.943 85.3509L245.723 86.6312L182.755 97.7308L167.221 461.049L194.752 456.206L198.421 455.559L205.641 454.279L212.477 453.078L214.523 364.188L218.72 363.449L225.939 362.169L232.789 360.968L234.835 449.145L282.612 440.724L259.793 84.1499ZM188.918 336.485L207.62 116.512L212.807 157.043L215.156 175.455L235.31 333.041L188.918 336.485Z" fill="#2ECCFF"/>
<path d="M378.985 423.568L397.146 59.7612L348.669 68.3136L340.037 430.022L378.972 423.568H378.985Z" fill="#2ECCFF"/>
<path d="M107.09 111.049L154.709 102.655V463.255L107.09 471.649V111.049Z" fill="#2ECCFF"/>
<path d="M474.605 42.7878H474.578C469.985 42.3919 465.049 42.6823 459.823 43.6061C457.922 43.9361 456.075 44.3452 454.253 44.8204C453.356 45.0579 452.471 45.3087 451.6 45.5727C451.574 45.5859 451.561 45.5859 451.534 45.5991C420.651 55.1017 402.213 86.2362 402.213 147.014V331.695C402.213 393.054 421.007 417.576 452.405 415.662H452.419C452.419 415.662 452.458 415.662 452.471 415.649C453.752 415.583 455.058 415.464 456.378 415.292C457.513 415.16 458.661 414.989 459.823 414.778C495.643 408.469 517.42 377.427 517.42 311.383V126.702C517.42 70.306 501.542 45.0447 474.605 42.7878ZM459.823 362.671C458.199 362.962 456.695 362.605 455.428 361.444C453.184 359.438 451.719 354.964 451.719 347.203V113.332C451.719 105.717 453.131 100.754 455.296 97.9297C456.589 96.2404 458.147 95.2901 459.823 94.9997C461.024 94.7886 462.172 94.9337 463.202 95.488C463.743 95.7784 464.257 96.2008 464.733 96.7419C466.673 98.9592 467.913 103.315 467.913 110.468V344.339C467.913 353.156 466.013 358.422 463.254 360.929C463.215 360.969 463.202 360.982 463.162 361.008C463.162 361.022 463.149 361.022 463.149 361.022C462.132 361.932 461.011 362.46 459.823 362.671Z" fill="#FF64E6"/>
<path d="M589.826 21.2206C554.336 27.4897 532.783 58.479 532.783 124.523V309.204C532.783 375.261 554.336 398.648 589.826 392.392C625.315 386.136 646.868 355.134 646.868 289.09V220.579L598.47 229.118V321.874C598.47 334.03 594.854 339.415 590.367 340.207C585.893 340.999 582.263 336.894 582.263 324.738V90.8277C582.263 78.6722 585.879 73.2873 590.367 72.4954C594.841 71.7035 598.47 75.8082 598.47 87.9769V165.978L646.868 157.439V104.409C646.868 38.365 625.315 14.9647 589.826 21.2206Z" fill="#FF64E6"/>
<path d="M252.943 85.3525L245.724 86.6328L182.755 97.7324L175.905 98.9334L160.371 462.252L167.221 461.051L198.421 455.547L205.641 454.28L207.686 365.378L218.72 363.438L225.94 362.157L227.998 450.347L234.835 449.146L268.543 443.194L275.776 441.914L252.943 85.3525ZM213.348 141.841L215.157 175.456L222.732 316.109L215.513 317.376L207.013 318.881L210.445 223.154L212.807 157.045L213.348 141.841Z" fill="#FF64E6"/>
<path d="M336.618 241.658L333.78 384.317L329.042 242.991L322.8 72.9066L273.465 81.6042L296.298 438.179L371.804 424.862L389.965 61.0679L341.488 69.6203L336.618 241.658Z" fill="#FF64E6"/>
<path d="M99.9102 260.255L83.7029 263.106V115.168L36.084 123.575V484.175L83.7029 475.768V312.348L99.9102 309.497V472.917L147.529 464.509V103.936L99.9102 112.33V260.268V260.255Z" fill="#FF64E6"/>
<path d="M464.35 44.4247H464.311C461.117 44.2399 457.751 44.3851 454.254 44.8206C453.158 44.9658 452.036 45.1374 450.901 45.3354C449.859 45.5069 448.829 45.7313 447.813 45.9425C447.773 45.9557 447.734 45.9557 447.694 45.9689C413.788 53.5578 393.305 84.679 393.305 148.73V333.411C393.305 397.33 413.709 421.271 447.483 417.008C447.536 417.008 447.602 417.008 447.655 416.995C448.724 416.85 449.806 416.692 450.901 416.494C452.089 416.283 453.251 416.045 454.399 415.781H454.425C455.085 415.636 455.732 415.464 456.379 415.293C488.938 406.846 508.511 375.698 508.511 313.086V128.418C508.511 71.0981 492.106 45.9293 464.35 44.4247ZM455.296 97.93C457.54 99.9493 459.005 104.423 459.005 112.184V346.042C459.005 353.657 457.593 358.62 455.428 361.444C454.135 363.134 452.578 364.084 450.901 364.374C446.44 365.166 442.811 361.075 442.811 348.906V115.048C442.811 102.892 446.427 97.5076 450.901 96.7157C452.525 96.4254 454.029 96.7817 455.296 97.93Z" fill="white"/>
<path d="M581.894 22.5946C546.404 28.8638 524.852 59.853 524.852 125.897V310.578C524.852 376.635 546.404 400.022 581.894 393.766C617.384 387.51 638.936 356.508 638.936 290.464V221.953L590.539 230.492V323.249C590.539 335.404 586.922 340.789 582.435 341.581C577.961 342.373 574.331 338.268 574.331 326.113V92.2149C574.331 80.0594 577.948 74.6745 582.435 73.8826C586.909 73.0908 590.539 77.1954 590.539 89.3641V167.365L638.936 158.826V105.796C638.936 39.7522 617.384 16.3519 581.894 22.6078V22.5946Z" fill="white"/>
<path d="M245.724 86.6318L182.756 97.7315L175.906 98.9325L168.687 100.213L154.71 427.105L153.152 463.531L154.71 463.254L160.372 462.251L167.222 461.05L194.753 456.206L198.422 455.56L200.455 366.657L207.687 365.377L218.721 363.437L220.78 451.627L227.999 450.346L234.836 449.145L268.544 443.193L245.724 86.6318ZM206.13 143.12L210.446 223.154L215.514 317.375L207.014 318.88L199.795 320.16L206.13 143.12Z" fill="white"/>
<path d="M329.492 242.938L326.654 385.61L321.916 244.271L315.673 74.1864L266.352 82.884L289.171 439.458L364.678 426.141L382.852 62.3345L334.375 70.8869L329.492 242.938Z" fill="white"/>
<path d="M92.6641 261.535L76.4568 264.386V116.447L28.8379 124.855V485.455L76.4568 477.047V313.628L92.6641 310.764V474.197L140.296 465.789V105.203L92.6641 113.61V261.548V261.535Z" fill="white"/>
<path d="M686.277 25.961L688.534 29.7224L689.51 29.5641L691.767 24.9843V29.1549L693.562 28.8514V22.833L691.094 23.2553L689.075 27.36L687.082 23.968L684.521 24.4168V30.4351L686.277 30.1316V25.961Z" fill="white"/>
<path d="M691.766 33.7614C691.7 33.9066 691.344 34.8965 689.219 35.266C687.332 35.596 686.632 35.0021 686.632 34.065V33.9594C686.632 32.9827 687.239 32.2964 689.193 31.9401C691.251 31.5705 691.7 32.3492 691.74 32.4944L693.733 32.1513V32.0721C693.733 31.3594 693.139 29.8152 689.377 30.4619L689.008 30.5279C685.154 31.201 684.652 33.1675 684.652 34.2762V34.5137C684.652 35.5696 685.246 37.4173 689.008 36.7706L689.377 36.7046C693.099 36.0579 693.733 34.2498 693.733 33.4975V33.4183L691.74 33.7614H691.766Z" fill="white"/>
<path d="M679.44 36.362L677.487 33.2736L674.939 33.6827V39.16L676.668 38.8828V35.0949L678.899 38.5133L679.862 38.3681L682.106 34.2107V37.9985L683.848 37.7214V32.2441L681.42 32.6269L679.427 36.362H679.44Z" fill="white"/>
<path d="M678.529 31.492L680.417 31.162V26.5691L683.492 26.0148V24.5894L674.939 26.0939V27.5193L678.516 26.8858V31.4788L678.529 31.492Z" fill="white"/>
</svg>
